<?xml version="1.0" encoding="UTF-8"?> <svg xmlns="http://www.w3.org/2000/svg" width="100" height="100" viewBox="0 0 100 100" fill="none"><g clip-path="url(#clip0_234_1789)"><path d="M75.9745 55.8481C75.7316 53.6982 74.107 52.1293 72.005 52.0297C71.1341 51.9965 70.2548 52.0297 69.3755 52.0297C69.3001 51.7724 69.2415 51.5814 69.1829 51.3905C68.0942 47.4724 67.0223 43.5378 65.9001 39.628C65.2971 37.5528 63.8567 36.2827 61.7548 35.7598C61.5957 35.7183 61.4282 35.6934 61.2691 35.6602V38.1671C62.3159 38.358 63.2119 39.0968 63.5134 40.1676C64.6188 44.0192 65.674 47.8958 66.7459 51.7558C66.7543 51.8139 66.7459 51.872 66.7208 52.0131H56.3617C56.1356 52.0131 55.9095 52.0131 55.6917 52.038C55.1223 52.121 54.7035 52.5859 54.67 53.1586C54.6449 53.6816 54.9966 54.2128 55.5242 54.3457C55.809 54.4204 56.1272 54.4287 56.4287 54.4287C61.3947 54.437 66.3607 54.437 71.3267 54.437C71.6533 54.437 71.9883 54.437 72.2981 54.52C73.0769 54.7358 73.6213 55.5576 73.5459 56.3213C73.4705 57.1846 72.809 57.8653 71.938 57.9649C71.7119 57.9898 71.4858 57.9815 71.2597 57.9815H29.7311C29.371 57.9815 28.9942 57.9566 28.6508 57.857C27.8636 57.6162 27.3528 56.7944 27.4533 56.0225C27.5622 55.1758 28.207 54.5366 29.0528 54.4536C29.2789 54.4287 29.4966 54.437 29.7228 54.437C34.672 54.437 39.6213 54.437 44.5622 54.4287C44.872 54.4287 45.1819 54.4287 45.475 54.354C46.0361 54.2294 46.3794 53.7148 46.3459 53.1337C46.3208 52.5609 45.9021 52.1127 45.3242 52.038C45.0981 52.0048 44.872 52.0131 44.6543 52.0131H34.2784C34.6888 50.5355 35.074 49.1741 35.4425 47.8211C36.1208 45.3972 36.7824 42.965 37.4607 40.5328C37.8627 39.1051 38.8843 38.2169 40.2577 38.084V35.6187C37.2681 35.9175 35.5932 37.8848 34.9735 40.3004C34.0188 44.0109 32.9301 47.68 31.9336 51.3822C31.7996 51.8886 31.5819 52.0546 31.0627 52.0214C30.3508 51.9882 29.639 51.9965 28.9272 52.038C26.8252 52.1459 25.1755 53.8144 25.008 55.9726C24.8489 57.9317 26.306 59.8492 28.2824 60.2809C28.542 60.339 28.7932 60.3888 29.0612 60.4386C29.0863 60.5382 29.1031 60.6129 29.1198 60.6876C30.1415 66.2825 31.1548 71.8773 32.1764 77.4722C32.5533 79.5557 34.2198 80.9835 36.3553 80.9918C45.7848 81.0001 55.2144 81.0001 64.6439 80.9918C66.7292 80.9835 68.4124 79.6055 68.7976 77.5884C69.3587 74.6332 69.8779 71.6698 70.4139 68.7146C70.908 65.967 71.4104 63.2111 71.9129 60.4386C72.2563 60.3722 72.5829 60.3224 72.8927 60.2394C74.8439 59.7081 76.2006 57.774 75.9745 55.8481ZM59.3597 60.8536C59.3597 60.7291 59.3764 60.6129 59.3932 60.4303H61.7883C61.805 60.588 61.8301 60.7457 61.8301 60.8951C61.8301 63.842 61.8301 66.7805 61.8301 69.7191C61.8301 70.6571 61.3612 71.1966 60.5991 71.2049C59.9878 71.2049 59.5021 70.8148 59.3932 70.2171C59.3681 70.0594 59.3597 69.8934 59.3597 69.7357C59.3597 66.7722 59.3597 63.8088 59.3597 60.8536ZM49.2686 62.1486V60.4303H51.7055C51.7139 60.5963 51.7223 60.7374 51.7223 60.8702C51.7223 63.8503 51.7306 66.8303 51.7223 69.8187C51.7223 70.5907 51.3454 71.0887 50.7173 71.1883C49.8966 71.3129 49.2769 70.7733 49.2686 69.8851C49.2602 67.3035 49.2686 64.7302 49.2686 62.1486ZM39.1607 65.9919V60.4303H41.5809C41.606 60.5963 41.6395 60.7457 41.6395 60.8951V69.7191C41.6395 70.5907 41.2543 71.1053 40.5927 71.1883C39.7804 71.2963 39.1774 70.7567 39.1691 69.8602C39.1439 68.5652 39.1607 67.2786 39.1607 65.9919ZM68.0356 68.1336C67.5247 70.9559 67.0055 73.7699 66.503 76.584C66.2267 78.128 65.7242 78.5679 64.1331 78.5679H36.774C35.3252 78.5679 34.7641 78.1114 34.5129 76.7334C33.5415 71.3627 32.5617 65.9836 31.5902 60.6129C31.5902 60.5714 31.5902 60.5299 31.5902 60.422H36.7154V61.1276C36.7154 64.0329 36.7154 66.9382 36.7154 69.8519C36.7321 72.1513 38.4405 73.745 40.7016 73.6205C42.343 73.5209 43.8085 72.1845 44.0178 70.5658C44.0597 70.2088 44.0681 69.8436 44.0681 69.4783C44.0681 66.7141 44.0681 63.9499 44.0681 61.1857V60.4386H46.8065V61.0861C46.8065 64.0744 46.8065 67.0545 46.8149 70.0428C46.8149 71.7694 48.071 73.2387 49.7627 73.579C51.4292 73.9028 53.1627 73.0395 53.8159 71.4706C54.0252 70.9642 54.1341 70.3831 54.1341 69.8353C54.1676 66.9216 54.1508 64.0163 54.1508 61.111V60.4386H56.8976V61.1525C56.8976 64.0412 56.8893 66.9216 56.8976 69.8104C56.8976 71.6034 57.8858 72.9731 59.4518 73.4711C61.8636 74.2265 64.2252 72.475 64.2503 69.8851C64.2838 66.9963 64.2587 64.1076 64.2587 61.2272V60.4552H69.409C68.9484 63.0202 68.4794 65.5769 68.0188 68.1336H68.0356Z" fill="#2280C0"></path><path d="M40.9699 38.1005C40.9699 38.4575 40.9615 38.831 40.9699 39.2046C41.0201 41.4956 43.1807 43.0562 45.3832 42.3673C45.7182 42.2676 45.894 42.2759 46.1536 42.5582C47.1669 43.6788 48.4231 43.9693 49.8719 43.5128C50.031 43.463 50.3073 43.4464 50.3911 43.5377C51.664 44.8907 53.1295 45.0651 54.7876 44.318C55.5665 45.1149 56.5044 45.5714 57.6266 45.4635C59.4522 45.2892 60.6999 43.9361 60.7334 42.1016C60.7586 40.9727 60.7334 39.8438 60.7334 38.7148V35.4525C60.7334 35.1869 60.7334 34.9628 60.7334 34.7387C60.8758 31.3602 59.9128 28.3386 57.8192 25.6574C57.5344 25.2838 57.2748 24.8024 57.233 24.3541C57.1157 23.1588 57.0655 21.9468 57.1157 20.7515C57.1492 19.9878 56.9985 19.415 56.3536 19H55.4995C54.8714 19.3901 54.6955 19.9795 54.6369 20.6768C54.5197 22.0465 54.3773 23.4327 54.7793 24.7609C55.0305 25.5744 55.3571 26.4211 55.8679 27.0935C57.5177 29.2766 58.3551 31.6673 58.2965 34.4066C58.2546 36.8886 58.2965 39.3706 58.2798 41.8443C58.2798 42.1514 58.2044 42.5333 58.0118 42.7325C57.8275 42.9317 57.4088 43.0645 57.1576 42.9898C56.8812 42.9151 56.6049 42.608 56.4709 42.3257C56.3453 42.0518 56.4039 41.6949 56.3788 41.3794C56.3285 40.7154 55.9014 40.2588 55.2817 40.2007C54.662 40.1343 54.1261 40.5576 53.9753 41.2134C53.9586 41.313 53.9502 41.4126 53.9334 41.5123C53.833 42.0435 53.4561 42.3839 52.9704 42.334C52.4428 42.2759 52.1162 41.9688 52.0827 41.4209C52.0576 41.1055 52.0827 40.7818 52.066 40.458C52.0408 39.6943 51.5802 39.1963 50.8852 39.1714C50.2152 39.1548 49.7463 39.5781 49.629 40.3086C49.5201 40.981 49.1768 41.3213 48.6157 41.2881C48.0714 41.2549 47.7532 40.8731 47.7364 40.1841C47.7197 39.8272 47.7448 39.4619 47.7113 39.0967C47.6527 38.4741 47.2088 38.0424 46.6142 38.0009C45.9778 37.9511 45.4837 38.3247 45.333 38.9556C45.2995 39.0967 45.2911 39.2378 45.2576 39.3706C45.132 39.877 44.797 40.126 44.2778 40.1011C43.7837 40.0762 43.432 39.769 43.432 39.3042C43.3817 35.9008 43.1137 32.4725 44.8891 29.3181C45.4669 28.2888 45.961 27.2014 46.4886 26.1305C47.0246 25.0597 47.2507 23.9308 47.1251 22.7271C47.0497 21.9717 47.0078 21.1998 46.9995 20.4361C46.9995 19.7554 46.7064 19.2822 46.095 19H45.3581C44.8472 19.3403 44.4871 19.7554 44.5374 20.4278C44.6044 21.2164 44.6044 22.005 44.6881 22.7852C44.7719 23.6568 44.6044 24.4703 44.2108 25.2423C43.6916 26.2883 43.1724 27.3425 42.6448 28.3884C41.9162 29.8162 41.3802 31.3187 41.1625 32.9041C41.0369 33.7923 40.9783 34.6971 40.8945 35.5854L40.9699 38.0922V38.1005Z" fill="#7ABF8C"></path><path d="M50.4995 52.0212C51.1779 52.0212 51.7138 52.5359 51.7138 53.1917C51.7138 53.8475 51.1862 54.3953 50.533 54.4036C49.8463 54.4202 49.2769 53.8641 49.2852 53.1917C49.2936 52.5276 49.8296 52.0129 50.4995 52.0129V52.0212Z" fill="#32BDE6"></path></g><defs><clipPath id="clip0_234_1789"><rect width="51" height="62" fill="white" transform="translate(25 19)"></rect></clipPath></defs></svg> 