<?xml version="1.0" encoding="UTF-8"?> <svg xmlns="http://www.w3.org/2000/svg" width="100" height="100" viewBox="0 0 100 100" fill="none"><g clip-path="url(#clip0_234_1783)"><path d="M82.0007 73.4224C81.9518 73.6003 81.8947 73.7783 81.854 73.9562C81.2587 76.2772 79.261 77.8946 76.8475 77.9916C76.6844 77.9916 76.5131 77.9916 76.3501 77.9916C58.7947 77.9916 41.2475 77.9916 23.6921 77.9916C21.1318 77.9916 19.1504 76.6815 18.3513 74.4818C17.5196 72.2013 18.3513 69.67 20.3898 68.3195C20.561 68.2063 20.7323 68.0931 20.8709 68.0041C20.3327 66.5161 19.713 65.0928 19.3053 63.6128C16.2476 52.4689 18.5796 42.4652 26.1139 33.7393C31.2671 27.763 37.9289 24.2936 45.7974 23.2747C62.2601 21.1478 77.3367 31.6286 81.112 47.366C81.4952 48.9429 81.6338 50.5765 81.8947 52.1859C81.9273 52.3638 81.9681 52.5498 82.0089 52.7277V56.6903C81.9763 56.8278 81.9192 56.9653 81.911 57.1028C81.6501 60.7743 80.7287 64.2841 79.2366 67.6483C79.1876 67.7534 79.1713 67.8747 79.1795 67.8505C79.8318 68.4732 80.5167 68.9503 80.957 69.5892C81.43 70.2847 81.6746 71.1419 82.017 71.9263V73.4143L82.0007 73.4224ZM63.9806 28.6121C61.0044 26.7278 53.405 24.7465 51.0811 25.256C51.0811 25.8625 51.13 26.4852 51.0648 27.0998C51.024 27.4395 50.8691 27.86 50.6163 28.046C50.3717 28.2239 49.8417 28.2886 49.5971 28.1512C49.2954 27.9732 49.0263 27.5446 48.9774 27.1888C48.8796 26.5337 48.9529 25.8544 48.9529 25.1509C44.3134 25.3207 40.0652 26.469 36.0372 28.5798C36.3796 29.162 36.6895 29.6958 36.9912 30.2376C37.3581 30.8927 37.2439 31.483 36.7139 31.8146C36.1595 32.1542 35.5479 31.9521 35.1484 31.297C34.8304 30.7714 34.5205 30.2376 34.1862 29.6553C30.3131 32.0895 27.182 35.1869 24.7358 39.0282C25.3229 39.3679 25.8692 39.6752 26.3992 39.9906C27.0434 40.3788 27.2391 40.9529 26.9374 41.4948C26.6194 42.0609 25.9997 42.1903 25.3229 41.8102C24.7848 41.5109 24.2466 41.2036 23.6595 40.864C21.5151 44.8913 20.3735 49.1128 20.2023 53.682C20.8709 53.682 21.4661 53.6739 22.0695 53.682C22.3141 53.682 22.5832 53.7062 22.7952 53.8113C23.2274 54.0216 23.4231 54.4098 23.3415 54.8869C23.2437 55.453 22.8604 55.7522 22.2978 55.7765C21.6211 55.8088 20.9361 55.7765 20.2186 55.7765C20.2186 55.9625 20.2186 56.0595 20.2186 56.1566C20.4061 59.82 21.2541 63.3298 22.73 66.694C22.9583 67.2035 23.1866 67.5189 23.8063 67.4542C24.0835 67.4218 24.3852 67.5027 24.6625 67.5755C25.2577 67.7372 25.5757 68.2467 25.4615 68.7886C25.3392 69.3627 24.8745 69.6862 24.2629 69.6215C24.0183 69.5973 23.7655 69.5487 23.5209 69.5326C22.1429 69.476 20.928 70.2442 20.4143 71.4896C19.5173 73.6489 21.1155 75.8566 23.6106 75.8647C28.9596 75.8728 34.3167 75.8647 39.6656 75.8647C39.7716 75.8647 39.8776 75.8485 40.1386 75.8324C33.3545 72.4358 28.9514 67.2682 27.2309 60.0707C25.5186 52.8733 26.9782 46.2257 31.5607 40.3869C40 29.6311 55.8267 28.3614 65.9212 37.6049C70.9196 42.1822 73.5451 47.9402 73.4554 54.6686C73.325 64.3245 68.5957 71.2955 59.9526 75.8647H60.6946C64.2741 75.8647 67.8619 75.8647 71.4414 75.8647C73.1945 75.8647 74.9394 75.889 76.6925 75.8566C78.3804 75.8243 79.6769 74.6436 79.8726 73.0181C80.0601 71.4977 79.0246 69.9935 77.4672 69.6377C76.9535 69.5164 76.399 69.5973 75.8608 69.5973C75.2574 69.5973 74.8416 69.29 74.7437 68.7319C74.6459 68.182 74.9313 67.713 75.5021 67.5512C75.8201 67.4623 76.1625 67.4057 76.4887 67.4218C76.8882 67.438 77.0676 67.2763 77.2225 66.9285C78.3152 64.5024 79.0979 61.9874 79.5056 59.3671C79.685 58.1945 79.7666 57.0138 79.9052 55.7684C79.1795 55.7684 78.5761 55.7765 77.9727 55.7684C77.1818 55.7522 76.7007 55.3398 76.6925 54.709C76.6925 54.0701 77.1655 53.6658 77.9645 53.6577C78.5842 53.6496 79.1958 53.6577 79.8563 53.6577C79.6687 49.0643 78.5353 44.8428 76.399 40.8397C75.7956 41.1875 75.2738 41.4867 74.7437 41.7778C74.0588 42.1579 73.4391 42.0366 73.1211 41.4786C72.8031 40.9125 73.0151 40.3464 73.7001 39.9421C74.2301 39.6348 74.7601 39.3274 75.3145 39.004C72.8439 35.1545 69.7291 32.0653 65.9212 29.6715C65.8478 29.72 65.8071 29.7362 65.7826 29.7686C65.5054 30.2295 65.2363 30.6986 64.9672 31.1595C64.5188 31.9197 63.9317 32.1462 63.3364 31.7984C62.7657 31.4668 62.6841 30.8522 63.1 30.1244C63.3854 29.623 63.6789 29.1216 63.9806 28.5959V28.6121ZM71.3517 54.7009C71.3191 43.0232 61.6812 33.4886 49.9803 33.5776C38.1735 33.6584 28.7068 43.0556 28.6823 54.7171C28.666 66.3624 38.2713 75.8971 50.0211 75.889C61.7709 75.8728 71.3843 66.3301 71.3517 54.7009Z" fill="#4381BC"></path><path d="M30.8091 54.6851C30.8743 44.0749 39.493 35.6401 50.1746 35.7129C60.9296 35.7937 69.2139 44.2609 69.1487 55.0813C69.0835 66.4598 59.47 73.7867 49.9218 73.7624C39.4033 73.7301 30.7357 65.0608 30.8091 54.6851ZM33.1818 51.5635C33.4428 51.6444 33.5732 51.701 33.7037 51.7333C36.0765 52.3479 38.4493 52.9545 40.8221 53.5772C41.9554 53.8764 42.4365 54.5395 42.6567 55.6636C42.8361 56.5613 43.1133 57.467 43.4965 58.2919C44.0999 59.5939 44.0836 60.3137 43.1622 61.4135C41.719 63.1441 40.2676 64.8828 38.8243 66.6135C38.6939 66.7671 38.5797 66.9289 38.3922 67.1877C39.5419 68.0125 40.6427 68.797 41.7679 69.5976C41.9636 69.3065 42.0859 69.1366 42.1919 68.9668C43.4231 67.0502 44.6625 65.1497 45.8775 63.2169C46.5216 62.1899 47.4023 61.8826 48.5846 62.0119C49.5223 62.1171 50.4926 62.1171 51.4303 62.0119C52.6126 61.8826 53.5014 62.1818 54.1455 63.2007C55.3523 65.1255 56.5917 67.034 57.8229 68.9506C57.9452 69.1366 58.0757 69.3145 58.2714 69.5976C59.4048 68.7808 60.5056 67.9802 61.6227 67.1715C61.4433 66.9289 61.3536 66.7995 61.2476 66.6701C59.788 64.9233 58.3285 63.1684 56.8689 61.4216C55.9394 60.3137 55.9149 59.5939 56.5102 58.3C56.9016 57.4509 57.1788 56.5289 57.3663 55.607C57.5865 54.5233 58.1002 53.844 59.1765 53.5691C61.109 53.0677 63.0414 52.5744 64.9658 52.0811C65.561 51.9274 66.1481 51.7657 66.8493 51.5797C66.4008 50.221 65.985 48.9352 65.5528 47.617C65.1859 47.7545 64.9331 47.8434 64.6885 47.9405C62.5604 48.7734 60.4403 49.6145 58.3122 50.4475C57.1054 50.9165 56.3634 50.6901 55.4175 49.849C54.6837 49.194 53.8601 48.6198 53.0121 48.1184C52.0989 47.5847 51.5771 46.8811 51.6341 45.8217C51.6831 44.8351 51.7564 43.8404 51.8217 42.8537C51.9277 41.2282 52.0255 39.6108 52.1315 37.9125H47.8833C47.9078 38.3169 47.9241 38.6242 47.9404 38.9315C48.0872 41.1959 48.234 43.4603 48.3726 45.7327C48.446 46.8487 47.9323 47.5766 46.9619 48.1427C46.0895 48.6441 45.2659 49.2587 44.5158 49.9218C43.7004 50.6416 42.8605 50.9084 41.8331 50.5041C40.8465 50.1159 39.8599 49.7277 38.8733 49.3476C37.43 48.7815 35.9949 48.2235 34.4457 47.617C34.0135 48.9595 33.5977 50.2291 33.1655 51.5716L33.1818 51.5635ZM64.4602 45.757C61.9814 41.9884 58.6302 39.5461 54.2515 38.3492C54.0885 40.8643 53.9172 43.3147 53.7868 45.7651C53.7786 45.9349 53.9988 46.1532 54.17 46.2826C55.0588 46.9539 55.9883 47.5685 56.8608 48.264C57.1462 48.4904 57.3419 48.5632 57.6762 48.4176C58.6302 48.0214 59.6086 47.6574 60.5708 47.2773C61.8428 46.7759 63.1148 46.2746 64.4521 45.7489L64.4602 45.757ZM45.7715 38.3492C41.401 39.5461 38.0416 41.9803 35.5709 45.7489C37.9356 46.6789 40.2268 47.5927 42.5344 48.4661C42.6811 48.5228 42.9502 48.3934 43.1133 48.2801C44.0428 47.6251 44.9398 46.9296 45.8856 46.2988C46.171 46.1128 46.2933 45.9592 46.2607 45.6276C46.2036 45.0534 46.1792 44.4711 46.1384 43.897C46.0161 42.0693 45.8938 40.2335 45.7715 38.3492ZM36.8674 65.4894C36.9489 65.4732 36.9734 65.4732 36.9897 65.4651C38.539 63.6294 40.0882 61.7936 41.613 59.9417C41.7108 59.8204 41.6701 59.5292 41.613 59.3513C41.2705 58.2596 40.871 57.1759 40.553 56.0761C40.4633 55.7687 40.3654 55.6394 40.0556 55.5585C38.8243 55.2593 37.6013 54.9196 36.3782 54.6042C35.2774 54.3212 34.1766 54.0462 33.0025 53.7551C32.7905 58.2272 34.1114 62.1009 36.8756 65.4975L36.8674 65.4894ZM66.9716 53.7632C64.5825 54.3778 62.2261 54.9681 59.8777 55.5908C59.7228 55.6313 59.5679 55.8739 59.5108 56.0518C59.2254 56.9495 59.0868 57.9199 58.6709 58.7529C58.2877 59.505 58.3611 59.9497 58.9074 60.5644C60.3343 62.1737 61.6797 63.8558 63.0577 65.5055C65.5365 63.2816 67.575 57.1921 66.9716 53.7632ZM56.2655 70.4548C54.9283 68.3684 53.6481 66.3547 52.3272 64.3572C52.2294 64.2035 51.8787 64.1631 51.6423 64.1631C50.566 64.1469 49.4897 64.1954 48.4215 64.1388C48.0138 64.1146 47.7855 64.1874 47.5653 64.5351C46.4238 66.3547 45.2578 68.1581 44.0999 69.9696C44.0102 70.1152 43.9287 70.2769 43.8227 70.471C47.9975 72.0237 52.0907 72.0318 56.2655 70.4548Z" fill="#7ABF8C"></path><path d="M49.9224 49.4446C52.8251 49.3637 55.2469 51.6766 55.3447 54.6203C55.4426 57.475 53.0698 59.9335 50.1344 60.0144C47.2071 60.1033 44.7528 57.75 44.6794 54.7982C44.606 51.9273 46.9706 49.5174 49.9224 49.4365V49.4446ZM50.0039 51.5634C48.2508 51.5634 46.832 52.9706 46.8157 54.7093C46.7994 56.4561 48.2671 57.9117 50.0284 57.9037C51.7651 57.8956 53.2002 56.4803 53.2165 54.7497C53.2328 52.9948 51.7896 51.5634 50.0039 51.5715V51.5634Z" fill="#4381BC"></path></g><defs><clipPath id="clip0_234_1783"><rect width="64" height="55" fill="white" transform="translate(18 23)"></rect></clipPath></defs></svg> 