<?xml version="1.0" encoding="UTF-8"?> <svg xmlns="http://www.w3.org/2000/svg" width="100" height="100" viewBox="0 0 100 100" fill="none"><g clip-path="url(#clip0_234_1784)"><path d="M32.3371 39.3663C32.6429 39.3663 32.9491 39.2495 33.1827 39.0159C33.65 38.5487 33.65 37.7915 33.1827 37.3242C31.142 35.283 30.0176 32.5698 30.0176 29.6829C30.0176 26.7966 31.142 24.0833 33.1827 22.0421C33.65 21.5749 33.65 20.8177 33.1827 20.3504C32.7155 19.8832 31.9578 19.8832 31.491 20.3504C28.9979 22.8435 27.625 26.1576 27.625 29.6834C27.625 33.2087 28.9979 36.5233 31.491 39.0164C31.7246 39.2495 32.0304 39.3663 32.3371 39.3663Z" fill="#32BDE6"></path><path d="M37.5901 37.0613C37.8963 37.0613 38.2026 36.9444 38.4362 36.7108C38.9034 36.2436 38.9034 35.4859 38.4362 35.0186C37.0112 33.5936 36.226 31.6985 36.226 29.6834C36.226 27.6678 37.0112 25.7727 38.4362 24.3477C38.9034 23.8804 38.9034 23.1228 38.4362 22.6555C37.9689 22.1887 37.2113 22.1887 36.744 22.6555C32.8692 26.5308 32.8692 32.8355 36.744 36.7103C36.9777 36.9444 37.2839 37.0613 37.5901 37.0613Z" fill="#32BDE6"></path><path d="M42.8439 34.7557C43.1501 34.7557 43.4564 34.6389 43.69 34.4052C44.1568 33.938 44.1568 33.1803 43.69 32.7131C42.0188 31.0423 42.0188 28.324 43.69 26.6527C44.1568 26.1859 44.1568 25.4283 43.69 24.961C43.2227 24.4938 42.4651 24.4938 41.9978 24.961C39.394 27.5649 39.394 31.8014 41.9978 34.4052C42.2314 34.6389 42.5377 34.7557 42.8439 34.7557Z" fill="#32BDE6"></path><path d="M52.1363 34.2918C54.0254 33.6123 55.3797 31.8034 55.3797 29.6835C55.3797 26.9838 53.1835 24.7871 50.4837 24.7871C47.7835 24.7871 45.5874 26.9838 45.5874 29.6835C45.5874 31.8034 46.9416 33.6123 48.8307 34.2918L30.7697 79.3585C30.524 79.9714 30.8219 80.6681 31.4353 80.9138C32.0482 81.16 32.7449 80.8617 32.9906 80.2483L36.0827 72.5331H48.7483C49.4092 72.5331 49.9448 71.9974 49.9448 71.3365C49.9448 70.6761 49.4092 70.1405 48.7483 70.1405H40.5039L59.9126 60.1271L63.9257 70.1405H58.347C57.6861 70.1405 57.1509 70.6761 57.1509 71.3365C57.1509 71.9974 57.6861 72.5331 58.347 72.5331H64.8844L67.9764 80.2483C68.1635 80.7156 68.6126 80.9999 69.0873 80.9999C69.2353 80.9999 69.3861 80.9725 69.5318 80.9138C70.1451 80.6676 70.443 79.9714 70.1973 79.358L52.1363 34.2918ZM46.4158 46.7499C46.5009 46.7694 46.5898 46.7806 46.681 46.7806H51.2474L43.5159 53.9849L46.4158 46.7499ZM47.3624 44.3876L50.4837 36.5992L53.6051 44.3876H47.3624ZM47.9799 29.6835C47.9799 28.3031 49.1034 27.1797 50.4837 27.1797C51.8641 27.1797 52.9871 28.3031 52.9871 29.6835C52.9871 31.0638 51.8641 32.1868 50.4837 32.1868C49.1034 32.1868 47.9799 31.0638 47.9799 29.6835ZM37.4993 68.9984L41.2429 59.6566H55.6054L37.4993 68.9984ZM43.5066 57.264L54.6164 46.9118L58.7654 57.264H43.5066Z" fill="#2280C0"></path><path d="M67.7821 39.0164C68.0157 39.2495 68.3219 39.3668 68.6282 39.3668C68.9344 39.3668 69.2406 39.2495 69.4742 39.0164C71.9669 36.5233 73.3398 33.2088 73.3398 29.6834C73.3398 26.1576 71.9669 22.8435 69.4742 20.3504C69.007 19.8832 68.2493 19.8832 67.7821 20.3504C67.3148 20.8177 67.3148 21.5749 67.7821 22.0426C69.8233 24.0833 70.9472 26.797 70.9472 29.6834C70.9472 32.5698 69.8233 35.2835 67.7821 37.3242C67.3148 37.7915 67.3148 38.5487 67.7821 39.0164Z" fill="#32BDE6"></path><path d="M62.5302 36.7109C62.7639 36.9446 63.0701 37.0614 63.3759 37.0614C63.6821 37.0614 63.9883 36.9446 64.2219 36.7109C68.0968 32.8356 68.0968 26.531 64.2219 22.6561C63.7547 22.1889 62.997 22.1889 62.5298 22.6561C62.063 23.1234 62.063 23.8805 62.5298 24.3478C63.9553 25.7733 64.7399 27.6679 64.7399 29.6835C64.7399 31.6991 63.9553 33.5937 62.5298 35.0192C62.063 35.486 62.063 36.2437 62.5302 36.7109Z" fill="#32BDE6"></path><path d="M57.2744 34.4054C57.508 34.639 57.8142 34.7558 58.12 34.7558C58.4262 34.7558 58.7325 34.639 58.9661 34.4054C61.57 31.8015 61.57 27.565 58.9661 24.9612C58.4988 24.4944 57.7416 24.4944 57.2739 24.9612C56.8071 25.4284 56.8071 26.1861 57.2739 26.6533C58.9451 28.3241 58.9451 31.0429 57.2739 32.7137C56.8071 33.1805 56.8071 33.9381 57.2744 34.4054Z" fill="#32BDE6"></path><path d="M54.6531 70.8785C54.4586 70.4075 53.9713 70.1069 53.4626 70.1437C52.967 70.179 52.5356 70.5309 52.3987 71.0079C52.261 71.4872 52.4453 72.0197 52.8525 72.3087C53.2555 72.5953 53.8 72.6033 54.2128 72.3305C54.6847 72.0192 54.8676 71.3979 54.6531 70.8785Z" fill="#4381BC"></path></g><defs><clipPath id="clip0_234_1784"><rect width="61" height="61" fill="white" transform="translate(20 20)"></rect></clipPath></defs></svg> 