<?xml version="1.0" encoding="UTF-8"?> <svg xmlns="http://www.w3.org/2000/svg" width="100" height="100" viewBox="0 0 100 100" fill="none"><g clip-path="url(#clip0_234_1785)"><path d="M82.641 72.8999C82.591 70.8599 81.511 69.3899 79.691 68.5099C79.041 68.1999 78.291 68.0899 77.501 67.8699V67.5399C77.501 65.0299 77.511 62.5199 77.501 59.9999C77.501 58.9799 77.141 58.6299 76.131 58.6099H74.371V50.8199C74.371 49.5199 74.071 49.2199 72.801 49.2199C70.021 49.2099 67.231 49.2099 64.451 49.2199C63.181 49.2199 62.881 49.5199 62.881 50.8199V58.6099H58.221C56.911 58.6099 56.641 58.8799 56.641 60.1699V67.9699H55.711C45.091 67.9699 34.481 67.9699 23.861 67.9799C23.261 67.9799 22.641 68.0099 22.061 68.1499C19.761 68.7199 18.281 70.4699 18.101 72.8399C17.981 74.3599 17.831 75.9099 18.491 77.3499C19.521 79.5599 21.331 80.4999 23.741 80.4999C37.891 80.4799 52.021 80.4899 66.161 80.4899C66.731 80.4899 67.191 80.0299 67.191 79.4599C67.191 78.8899 66.731 78.4299 66.161 78.4299H23.731C21.851 78.4299 20.521 77.5799 20.271 75.9899C20.091 74.8599 20.091 73.6499 20.261 72.5099C20.481 71.0099 21.771 70.0999 23.371 70.0899C26.851 70.0699 30.331 70.0799 33.811 70.0799H50.381C59.241 70.0799 68.111 70.1199 76.971 70.0599C79.321 70.0399 80.811 71.5799 80.641 73.7699C80.601 74.2299 80.641 74.7099 80.641 75.1799C80.601 76.9799 79.461 78.2199 77.671 78.4099C77.471 78.4299 77.271 78.4299 77.071 78.4299H75.401C74.831 78.4299 74.371 78.8899 74.371 79.4599C74.371 80.0299 74.831 80.4899 75.401 80.4899H77.121C77.491 80.4899 78.091 80.4599 78.461 80.3899C80.401 79.9999 81.831 78.8999 82.371 76.9599C82.721 75.6799 82.701 74.2599 82.661 72.8999H82.641ZM65.011 51.3399H72.231V58.5599H65.011V51.3399ZM65.981 67.9199H58.741V60.7299H65.981V67.9199ZM75.341 67.9299H68.121V60.7399H75.341V67.9299Z" fill="#2280C0"></path><path d="M60.4795 37.75C58.8395 37.75 57.1995 37.76 55.5595 37.74C55.3395 37.74 54.9995 37.6 54.9295 37.43C54.4695 36.37 54.0595 35.28 53.6095 34.13C54.8295 32.91 56.1095 31.65 57.3695 30.38C58.1295 29.62 58.1295 29.13 57.3695 28.38C56.0795 27.07 54.7795 25.77 53.4695 24.47C52.7195 23.72 52.2295 23.72 51.4695 24.48C50.3195 25.61 49.1895 26.77 48.0295 27.9C47.8795 28.05 47.5795 28.24 47.4395 28.18C46.3195 27.74 45.2295 27.24 44.0995 26.75C44.0995 24.99 44.0995 23.21 44.0995 21.44C44.0995 20.35 43.7495 20 42.6395 20H37.2495C36.1095 20 35.7595 20.35 35.7595 21.49C35.7595 23.26 35.7595 25.03 35.7595 26.76C34.7395 27.2 33.7695 27.58 32.8195 28.04C32.3895 28.24 32.1195 28.23 31.7795 27.87C30.6795 26.72 29.5395 25.61 28.4095 24.48C27.6595 23.74 27.1395 23.73 26.3995 24.47C25.1095 25.75 23.8195 27.04 22.5395 28.33C21.7295 29.14 21.7395 29.61 22.5395 30.43C23.7895 31.68 25.0495 32.93 26.2695 34.15C25.8395 35.22 25.3995 36.22 25.0295 37.25C24.8895 37.63 24.7195 37.77 24.3095 37.76C22.6795 37.74 21.0395 37.75 19.3995 37.75C18.3695 37.76 18.0295 38.09 18.0195 39.13C18.0195 40.97 18.0195 42.81 18.0195 44.65C18.0195 45.74 18.3795 46.09 19.4795 46.1C21.0595 46.1 22.6295 46.12 24.1995 46.08C24.7295 46.07 24.9295 46.27 25.0995 46.73C25.3795 47.56 25.7195 48.36 26.1095 49.15C26.2895 49.52 26.2295 49.73 25.9495 50C24.7595 51.16 23.5895 52.34 22.4195 53.52C21.7695 54.18 21.7695 54.72 22.4195 55.37C23.7495 56.71 25.0795 58.05 26.4195 59.38C27.1395 60.1 27.6295 60.09 28.3695 59.36C29.5295 58.21 30.6995 57.06 31.8395 55.88C32.1195 55.59 32.3295 55.56 32.6995 55.73C33.5095 56.12 34.3295 56.47 35.1795 56.77C35.5995 56.92 35.7695 57.1 35.7595 57.57C35.7195 59.19 35.7395 60.8 35.7495 62.42C35.7495 63.45 36.0995 63.8 37.1195 63.8C38.9795 63.81 40.8495 63.81 42.7095 63.8C43.7795 63.8 44.0895 63.47 44.0895 62.37C44.0895 60.75 44.0795 59.14 44.1095 57.52C44.1095 57.31 44.2495 56.98 44.4095 56.9C45.4695 56.44 46.5595 56.02 47.6895 55.57C48.9295 56.81 50.1895 58.08 51.4595 59.35C52.2095 60.1 52.7095 60.09 53.4695 59.34C54.7395 58.07 56.0095 56.8 57.2795 55.53C58.1295 54.68 58.1295 54.22 57.2995 53.39C56.1895 52.27 55.0995 51.14 53.9595 50.06C53.5895 49.72 53.5995 49.45 53.7995 49.03C54.1695 48.25 54.5195 47.44 54.7995 46.62C54.9495 46.2 55.1595 46.08 55.5795 46.09C57.1895 46.11 58.8095 46.1 60.4295 46.09C61.4395 46.09 61.8295 45.72 61.8395 44.72C61.8395 42.86 61.8395 41 61.8395 39.13C61.8295 38.11 61.4695 37.76 60.4595 37.75H60.4795ZM59.6995 43.99H54.6295C53.6295 43.99 53.4195 44.22 53.0895 45.13C52.6095 46.43 52.0695 47.71 51.4895 48.96C51.1095 49.79 51.0995 50.11 51.7395 50.75L55.3595 54.37L52.2795 57.45C52.0095 57.1 51.7295 56.67 51.3795 56.31C50.5095 55.4 49.5995 54.53 48.7195 53.63C48.2195 53.13 47.7295 53.1 47.0795 53.4C45.7395 54.02 44.3795 54.58 42.9995 55.1C42.3595 55.34 42.0295 55.68 42.0395 56.36V61.7H37.8695V58.53C37.8695 57.83 37.8695 57.13 37.8695 56.44C37.8495 55.61 37.6095 55.39 36.8295 55.09C35.4695 54.57 34.1395 54 32.8095 53.41C32.0695 53.07 31.7395 53.07 31.1295 53.67C29.9095 54.89 28.6995 56.12 27.5395 57.29C26.5395 56.29 25.5795 55.33 24.5795 54.33C25.6695 53.24 26.8395 52.07 28.0095 50.9C28.8295 50.07 28.8095 49.82 28.2995 48.78C27.7595 47.66 27.2695 46.5 26.8595 45.32C26.4695 44.16 26.3195 43.99 25.0495 43.99H20.1695V39.81H20.9995C22.4595 39.81 23.9195 39.82 25.3795 39.81C26.2795 39.81 26.4595 39.61 26.7695 38.77C27.2795 37.43 27.8395 36.11 28.4295 34.82C28.7695 34.06 28.7695 33.69 28.1595 33.08C26.9395 31.85 25.7095 30.64 24.5295 29.47C25.5295 28.46 26.4895 27.5 27.4895 26.5C28.6395 27.65 29.8195 28.84 31.0095 30.03C31.7995 30.81 32.0195 30.78 33.0195 30.3C34.2195 29.72 35.4695 29.22 36.7295 28.77C37.6195 28.44 37.8595 28.23 37.8695 27.28V22.15H42.0395V25.05C42.0395 25.86 42.0495 26.67 42.0395 27.47C42.0395 28.16 42.3895 28.5 43.0095 28.74C44.3695 29.25 45.7195 29.8 47.0395 30.39C47.8295 30.75 48.1395 30.76 48.7695 30.13C49.9995 28.91 51.2095 27.69 52.3895 26.51C53.3795 27.51 54.3395 28.47 55.3395 29.47C54.2195 30.59 53.0295 31.77 51.8395 32.96C51.0695 33.73 51.0895 34.02 51.5495 34.97C52.1095 36.14 52.6095 37.34 53.0395 38.56C53.4195 39.64 53.5595 39.82 54.6895 39.82H59.6995V43.99Z" fill="#49338F"></path><path d="M50.3822 71.1399C48.6522 71.1299 47.2422 72.5299 47.2422 74.2399C47.2422 75.9499 48.6722 77.3699 50.3722 77.3699C52.0722 77.3699 53.5022 75.9399 53.5122 74.2499C53.5122 72.5399 52.1022 71.1399 50.3822 71.1399ZM50.3622 75.2599C49.7922 75.2599 49.3522 74.8099 49.3622 74.2299C49.3622 73.6699 49.8322 73.1999 50.3822 73.2099C50.9422 73.2199 51.4022 73.6899 51.3922 74.2499C51.3922 74.8199 50.9422 75.2699 50.3622 75.2599Z" fill="#2280C0"></path><path d="M60.7912 71.1399C59.0512 71.1399 57.6912 72.5099 57.7012 74.2599C57.7012 75.9799 59.1012 77.3699 60.8112 77.3699C62.5312 77.3599 63.9212 75.9499 63.9212 74.2399C63.9212 72.5299 62.5312 71.1299 60.7912 71.1399ZM60.7912 75.2599C60.2312 75.2499 59.7612 74.7799 59.7712 74.2299C59.7712 73.6899 60.2712 73.2099 60.8112 73.2099C61.3612 73.2199 61.8412 73.7099 61.8312 74.2499C61.8312 74.8199 61.3712 75.2599 60.7912 75.2599Z" fill="#2280C0"></path><path d="M29.5007 71.1399C27.7707 71.1499 26.3807 72.5499 26.3907 74.2599C26.4107 75.9799 27.8307 77.3799 29.5307 77.3699C31.2307 77.3599 32.6607 75.9199 32.6407 74.2299C32.6307 72.5099 31.2207 71.1299 29.5007 71.1399ZM29.5407 75.2599C28.9707 75.2699 28.5007 74.8399 28.4907 74.2699C28.4707 73.7199 28.9307 73.2299 29.4807 73.2099C30.0307 73.1899 30.5107 73.6499 30.5307 74.2099C30.5307 74.7999 30.1207 75.2399 29.5407 75.2599Z" fill="#2280C0"></path><path d="M39.9818 71.1401C38.2518 71.1201 36.8518 72.4901 36.8418 74.2201C36.8418 75.9401 38.2218 77.3501 39.9318 77.3701C41.6518 77.3801 43.0518 76.0001 43.0618 74.2701C43.0618 72.5301 41.7218 71.1501 39.9818 71.1401ZM39.9818 75.2601C39.4018 75.2701 38.9318 74.8401 38.9218 74.2701C38.9018 73.7301 39.3718 73.2301 39.9118 73.2101C40.4518 73.1901 40.9618 73.6801 40.9818 74.2101C41.0018 74.7601 40.5318 75.2401 39.9818 75.2601Z" fill="#2280C0"></path><path d="M71.2516 71.1399C69.5216 71.1299 68.1116 72.5199 68.1016 74.2299C68.0916 75.9299 69.5216 77.3599 71.2216 77.3699C72.9316 77.3799 74.3416 75.9799 74.3516 74.2599C74.3716 72.5399 72.9816 71.1399 71.2516 71.1399ZM71.2616 75.2599C70.6816 75.2699 70.2316 74.8499 70.2216 74.2699C70.2116 73.6999 70.6516 73.2299 71.2116 73.2099C71.7516 73.1999 72.2516 73.6699 72.2616 74.2199C72.2816 74.7699 71.8316 75.2499 71.2616 75.2599Z" fill="#2280C0"></path><path d="M39.9808 30.4601C33.6908 30.4101 28.5308 35.5101 28.4808 41.8201C28.4308 48.1401 33.5408 53.3301 39.8708 53.3901C46.1808 53.4401 51.3708 48.3101 51.4008 41.9701C51.4408 35.6201 46.3608 30.5001 39.9808 30.4601ZM39.9308 51.2801C34.7408 51.2701 30.5308 47.0501 30.5508 41.9001C30.5808 36.7301 34.8108 32.5101 39.9608 32.5201C45.1208 32.5401 49.3508 36.7801 49.3408 41.9301C49.3208 47.1001 45.1008 51.3001 39.9308 51.2801Z" fill="#49338F"></path><path d="M39.9816 33.5801C35.3716 33.5701 31.6016 37.3001 31.6016 41.8901C31.5916 46.4801 35.3716 50.2701 39.9516 50.2601C44.5116 50.2601 48.2616 46.5301 48.2916 41.9601C48.3116 37.3501 44.5916 33.6001 39.9816 33.5801ZM39.7816 48.1501C36.3416 48.0401 33.6316 45.1901 33.7116 41.8001C33.7916 38.3501 36.5416 35.6401 40.0116 35.6701C43.5016 35.7001 46.2816 38.6101 46.1916 41.9901C46.0816 45.5201 43.2416 48.2601 39.7816 48.1501Z" fill="#49338F"></path><path d="M70.8906 80.4399C71.4429 80.4399 71.8906 79.9922 71.8906 79.4399C71.8906 78.8877 71.4429 78.4399 70.8906 78.4399C70.3383 78.4399 69.8906 78.8877 69.8906 79.4399C69.8906 79.9922 70.3383 80.4399 70.8906 80.4399Z" fill="#2280C0"></path></g><defs><clipPath id="clip0_234_1785"><rect width="64.67" height="60.5" fill="white" transform="translate(18 20)"></rect></clipPath></defs></svg> 