<?xml version="1.0" encoding="UTF-8"?> <svg xmlns="http://www.w3.org/2000/svg" width="100" height="100" viewBox="0 0 100 100" fill="none"><g clip-path="url(#clip0_234_1788)"><path d="M80.7912 79.98C80.7912 79.98 80.7112 80.02 80.7012 80.05C80.2712 81.04 79.0012 81.1 78.4112 79.94C76.8912 76.94 75.3212 73.97 73.7712 70.99C72.2412 68.04 70.7112 65.1 69.1812 62.15C69.0812 61.96 68.9812 61.77 68.8512 61.53C68.3512 61.95 67.8612 62.31 67.4312 62.75C67.3112 62.87 67.3412 63.22 67.4212 63.41C68.6412 66.63 69.8712 69.83 71.1012 73.04C71.8512 75 72.6112 76.95 73.3412 78.91C73.4512 79.2 73.5312 79.53 73.4912 79.83C73.4112 80.4 73.0212 80.74 72.4412 80.8C71.8312 80.86 71.4212 80.52 71.2112 79.97C70.6712 78.59 70.1512 77.2 69.6212 75.82C69.1412 74.57 68.6612 73.31 68.1612 72.03H67.5612C56.1212 72.03 44.6812 72.03 33.2412 72.02C32.7512 72.02 32.4912 72.14 32.3512 72.62C32.1812 73.2 31.9312 73.76 31.6912 74.41H32.4512C41.7512 74.41 51.0612 74.41 60.3612 74.41C60.6012 74.41 60.8412 74.4 61.0712 74.43C61.6912 74.52 62.1312 75.02 62.1212 75.6C62.1212 76.18 61.6712 76.67 61.0512 76.76C60.8412 76.79 60.6212 76.78 60.4012 76.78C50.7412 76.78 41.0812 76.78 31.4212 76.78C30.9412 76.78 30.6812 76.89 30.5212 77.38C30.2612 78.21 29.9112 79.01 29.6012 79.82C29.2812 80.65 28.6812 80.99 28.0112 80.75C27.3112 80.49 27.0612 79.82 27.3812 78.98C29.3612 73.81 31.3312 68.64 33.3312 63.49C33.5112 63.03 33.4512 62.78 33.0612 62.51C32.6612 62.23 32.3012 61.89 31.8912 61.55C31.0612 63.15 30.2612 64.69 29.4612 66.23C27.1212 70.74 24.7812 75.25 22.4312 79.75C22.3112 79.98 22.1912 80.21 22.0412 80.41C21.7012 80.84 21.1112 80.95 20.6412 80.71C20.1212 80.44 19.8612 79.87 20.0412 79.32C20.1212 79.06 20.2512 78.81 20.3712 78.56C23.4812 72.58 26.5812 66.6 29.6912 60.62C29.7912 60.43 29.8912 60.23 30.0112 59.98C29.4912 59.54 28.9712 59.08 28.4412 58.65C27.9912 58.29 27.7912 57.84 27.7912 57.26C27.7912 52.98 27.7912 48.71 27.7912 44.43C27.7912 44.31 27.7912 44.19 27.8012 44.07C27.8812 43.41 28.3712 42.95 28.9712 42.95C29.5712 42.95 30.0812 43.41 30.1412 44.07C30.1712 44.42 30.1612 44.78 30.1612 45.14C30.1612 48.92 30.1612 52.7 30.1612 56.48C30.1612 56.85 30.2712 57.09 30.5612 57.33C33.3812 59.67 36.1812 62.02 38.9812 64.38C39.3312 64.68 39.6812 64.82 40.1512 64.8C41.2312 64.77 42.3212 64.79 43.5012 64.79C43.5012 64.23 43.4812 63.7 43.5012 63.18C43.5512 62.33 44.0712 61.85 44.8212 61.92C45.4212 61.98 45.8312 62.42 45.8612 63.08C45.8812 63.63 45.8612 64.18 45.8612 64.76H49.4912C49.4912 64.25 49.4812 63.74 49.4912 63.23C49.5112 62.41 49.9412 61.93 50.6312 61.91C51.3412 61.89 51.8212 62.38 51.8612 63.21C51.8912 63.72 51.8612 64.23 51.8612 64.76H55.4612C55.4612 64.23 55.4512 63.72 55.4612 63.21C55.4812 62.41 55.9312 61.92 56.6212 61.9C57.3412 61.89 57.8112 62.39 57.8312 63.22C57.8412 63.71 57.8312 64.21 57.8312 64.78C58.9412 64.78 60.0212 64.79 61.1012 64.77C61.2512 64.77 61.4112 64.62 61.5412 64.51C64.4412 62.09 67.3412 59.66 70.2312 57.22C70.3912 57.08 70.5212 56.8 70.5312 56.58C70.5412 47.32 70.5612 38.05 70.5312 28.79C70.5212 25.25 67.6812 22.4 64.1412 22.39C54.9612 22.36 45.7712 22.36 36.5912 22.39C33.0212 22.39 30.2212 25.25 30.1712 28.82C30.1512 30.11 30.1712 31.39 30.1712 32.68C30.1712 33.58 29.6812 34.15 28.9512 34.13C28.2512 34.11 27.7812 33.56 27.8012 32.68C27.8212 30.98 27.7412 29.27 27.9312 27.58C28.3912 23.78 31.4912 20.69 35.2712 20.12C35.4012 20.1 35.5312 20.04 35.6512 20C45.4712 20 55.2912 20 65.1112 20C65.1812 20.03 65.2512 20.09 65.3212 20.1C69.4612 20.62 72.9912 24.29 72.9712 29.17C72.9212 38.47 72.9512 47.77 72.9712 57.07C72.9712 57.79 72.7412 58.32 72.1712 58.75C71.6712 59.13 71.2112 59.55 70.7312 59.96C71.3912 61.23 72.0212 62.44 72.6412 63.65C75.3612 68.9 78.0712 74.14 80.7912 79.39V79.98ZM33.5212 69.63H67.2612C66.6012 67.92 65.9612 66.24 65.2912 64.5C64.4212 65.23 63.6012 65.88 62.8112 66.57C62.3512 66.97 61.8712 67.15 61.2512 67.15C54.0112 67.14 46.7612 67.14 39.5212 67.15C38.9112 67.15 38.4212 66.97 37.9612 66.57C37.1612 65.87 36.3312 65.2 35.4812 64.49C34.8112 66.23 34.1712 67.91 33.5212 69.62V69.63Z" fill="#2280C0"></path><path d="M50.3415 46.1301C46.0715 46.1301 41.7915 46.1301 37.5215 46.1301C34.9615 46.1301 33.5215 44.6801 33.5215 42.1201C33.5215 38.9201 33.5215 35.7101 33.5215 32.5101C33.5215 30.0201 34.9815 28.5601 37.4615 28.5601C46.0715 28.5601 54.6715 28.5601 63.2815 28.5601C65.8015 28.5601 67.2515 30.0201 67.2515 32.5401C67.2515 35.7601 67.2515 38.9901 67.2515 42.2101C67.2515 44.6601 65.7815 46.1301 63.3415 46.1301C59.0115 46.1301 54.6715 46.1301 50.3415 46.1301ZM49.1715 30.9301H48.5415C44.8615 30.9301 41.1815 30.9301 37.5015 30.9301C36.2915 30.9301 35.8915 31.3301 35.8915 32.5301C35.8915 35.7301 35.8915 38.9401 35.8915 42.1401C35.8915 43.3701 36.2815 43.7601 37.5415 43.7601C41.2215 43.7601 44.9015 43.7601 48.5815 43.7601C48.7715 43.7601 48.9615 43.7401 49.1815 43.7301V30.9301H49.1715ZM51.6015 43.7601H52.1515C55.8715 43.7601 59.5915 43.7601 63.3015 43.7601C64.4615 43.7601 64.8715 43.3501 64.8715 42.1801C64.8715 38.9801 64.8715 35.7701 64.8715 32.5701C64.8715 31.3201 64.4815 30.9301 63.2415 30.9301C59.5615 30.9301 55.8815 30.9301 52.2015 30.9301C51.9915 30.9301 51.7915 30.9301 51.5915 30.9301V43.7601H51.6015Z" fill="#CF355E"></path><path d="M67.2419 53.2499C67.2419 55.4499 65.4019 57.2999 63.2019 57.2899C61.0019 57.2899 59.1619 55.4299 59.1719 53.2299C59.1919 51.0399 61.0019 49.2399 63.1819 49.2199C65.3819 49.1999 67.2319 51.0399 67.2419 53.2499ZM64.8619 53.2499C64.8619 52.3399 64.1019 51.5899 63.2019 51.5999C62.2919 51.5999 61.5419 52.3599 61.5519 53.2599C61.5519 54.1699 62.3119 54.9199 63.2119 54.9099C64.1219 54.9099 64.8719 54.1499 64.8619 53.2499Z" fill="#CF355E"></path><path d="M33.4922 53.27C33.4922 51.05 35.3022 49.22 37.5122 49.22C39.7222 49.22 41.5622 51.08 41.5522 53.27C41.5322 55.46 39.7322 57.27 37.5422 57.29C35.3322 57.31 33.5022 55.49 33.4922 53.27ZM39.1722 53.27C39.1722 52.37 38.4322 51.61 37.5222 51.6C36.6122 51.6 35.8722 52.33 35.8622 53.25C35.8622 54.17 36.5822 54.92 37.5022 54.92C38.4122 54.92 39.1622 54.18 39.1722 53.27Z" fill="#CF355E"></path><path d="M50.6715 51.6C48.8315 51.6 46.9915 51.6 45.1515 51.6C44.9315 51.6 44.7115 51.6 44.5015 51.57C43.9515 51.47 43.5415 50.98 43.5315 50.44C43.5215 49.92 43.8715 49.45 44.4015 49.31C44.6315 49.25 44.8715 49.23 45.1015 49.23C48.8215 49.23 52.5415 49.23 56.2615 49.23C56.4615 49.23 56.6615 49.23 56.8515 49.27C57.4715 49.4 57.8815 49.91 57.8415 50.49C57.8015 51.08 57.3415 51.55 56.7115 51.59C56.2215 51.62 55.7215 51.6 55.2315 51.6C53.7115 51.6 52.1815 51.6 50.6615 51.6H50.6715Z" fill="#CF355E"></path><path d="M50.7116 57.2899C48.7716 57.2899 46.8316 57.2899 44.8916 57.2899C43.9016 57.2899 43.3116 56.5399 43.6116 55.6999C43.7916 55.1899 44.2616 54.9199 45.0016 54.9199C47.9716 54.9199 50.9416 54.9199 53.9116 54.9199C54.7616 54.9199 55.6116 54.9199 56.4616 54.9199C57.3116 54.9299 57.8716 55.4299 57.8516 56.1299C57.8316 56.8199 57.2916 57.2799 56.4616 57.2899C54.5416 57.2899 52.6216 57.2899 50.7016 57.2899H50.7116Z" fill="#CF355E"></path><path d="M29.0309 37.1602C29.6609 37.1802 30.2009 37.7402 30.1809 38.3602C30.1609 38.9902 29.6109 39.5102 28.9709 39.5002C28.3309 39.4902 27.8009 38.9302 27.8209 38.3102C27.8409 37.6802 28.4009 37.1502 29.0309 37.1702V37.1602Z" fill="#32BDE6"></path><path d="M65.8108 76.76C65.1908 76.76 64.6308 76.19 64.6408 75.58C64.6408 74.96 65.2108 74.4 65.8208 74.41C66.4408 74.41 67.0008 74.98 66.9908 75.59C66.9908 76.21 66.4208 76.77 65.8108 76.76Z" fill="#32BDE6"></path><path d="M65.5108 51.5301C66.041 51.5301 66.4708 51.1003 66.4708 50.5701C66.4708 50.0399 66.041 49.6101 65.5108 49.6101C64.9806 49.6101 64.5508 50.0399 64.5508 50.5701C64.5508 51.1003 64.9806 51.5301 65.5108 51.5301Z" fill="#CF355E"></path></g><defs><clipPath id="clip0_234_1788"><rect width="60.79" height="60.81" fill="white" transform="translate(20 20)"></rect></clipPath></defs></svg> 