<?xml version="1.0" encoding="UTF-8"?> <svg xmlns="http://www.w3.org/2000/svg" width="100" height="100" viewBox="0 0 100 100" fill="none"><path d="M73.644 32.862C68.2686 32.862 63.8954 28.4888 63.8954 23.1133C63.8954 22.4984 63.397 22 62.7821 22H37.9751C37.3603 22 36.8618 22.4984 36.8618 23.1133C36.8618 28.4888 32.4886 32.862 27.1133 32.862C26.4984 32.862 26 33.3604 26 33.9752V45.6639C26 61.7306 33.8411 72.6099 49.9713 78.9234C50.1018 78.9744 50.2394 79 50.3771 79C50.5147 79 50.6524 78.9745 50.7828 78.9234C66.9152 72.6102 74.7573 61.7309 74.7573 45.6639V33.9752C74.7573 33.3604 74.2589 32.862 73.644 32.862ZM72.5307 45.6639C72.5307 60.5734 65.2824 70.7264 50.3771 76.6895C35.4739 70.7261 28.2266 60.5731 28.2266 45.6639V35.0372C33.9434 34.5079 38.5078 29.9435 39.0371 24.2266H61.7201C62.2493 29.9435 66.8138 34.5079 72.5306 35.0372V45.6639H72.5307Z" fill="#49338F"></path><path d="M59.7197 27.6654C59.5702 27.2075 59.1432 26.8977 58.6614 26.8977H42.0972C41.6154 26.8977 41.1884 27.2075 41.0389 27.6654C39.5944 32.0898 36.0906 35.5937 31.6662 37.0383C31.2083 37.1878 30.8984 37.6148 30.8984 38.0965V45.664C30.8984 52.5957 32.5046 58.2397 35.8087 62.9185C38.9399 67.3526 43.5609 70.8498 49.9355 73.61C50.0767 73.6711 50.2273 73.7016 50.378 73.7016C50.5286 73.7016 50.6792 73.6711 50.8203 73.61C57.1963 70.8499 61.8182 67.3527 64.9499 62.9185C68.2544 58.2399 69.8606 52.5958 69.8606 45.6638V38.0964C69.8606 37.6147 69.5508 37.1877 69.0929 37.0381C64.668 35.5937 61.1642 32.0898 59.7197 27.6654ZM67.6337 45.664C67.6337 51.0798 66.5682 55.6971 64.3701 59.6164L61.4694 53.1571C61.2898 52.7572 60.8921 52.4999 60.4537 52.4999H54.4958C53.8809 52.4999 53.3825 52.9984 53.3825 53.6132C53.3825 54.2281 53.8809 54.7265 54.4958 54.7265H59.7333L62.9353 61.8566C62.3569 62.6534 61.7242 63.4181 61.0355 64.1511L58.298 58.0548C58.1184 57.6549 57.7207 57.3976 57.2823 57.3976H47.8025C47.3201 55.753 45.7986 54.548 44 54.548C41.8166 54.548 40.0403 56.3257 40.0403 58.5109C40.0403 60.696 41.8166 62.4737 44 62.4737C45.7986 62.4737 47.3202 61.2688 47.8025 59.6242H56.5618L59.3343 65.7984C58.6585 66.3959 57.9408 66.9705 57.1794 67.5222L55.1296 62.9529C54.9501 62.5528 54.5523 62.2953 54.1138 62.2953H49.3206C48.7057 62.2953 48.2073 62.7937 48.2073 63.4085C48.2073 64.0234 48.7057 64.5218 49.3206 64.5218H53.3933L55.304 68.7811C53.8045 69.7154 52.1639 70.5782 50.3777 71.3727C38.6096 66.1365 33.1249 57.956 33.1249 45.664V44.3663H39.1366L44.1594 49.3921C44.3681 49.6011 44.6515 49.7184 44.9468 49.7184H55.8119C56.1072 49.7184 56.3906 49.6011 56.5993 49.3921L61.6221 44.3663H67.6338L67.6337 45.664ZM45.7364 58.5108C45.7364 59.4682 44.9574 60.247 44.0001 60.247C43.0444 60.247 42.2669 59.4681 42.2669 58.5108C42.2669 57.5535 43.0444 56.7745 44.0001 56.7745C44.9574 56.7745 45.7364 57.5533 45.7364 58.5108ZM67.6337 42.1398H61.1606C60.8653 42.1398 60.582 42.2571 60.3732 42.4661L55.3504 47.4918H45.4081L40.3853 42.4661C40.1765 42.2571 39.8932 42.1398 39.5978 42.1398H33.1248V38.8834C35.4525 37.9956 37.5339 36.6041 39.237 34.8444L40.9332 38.6192C41.1129 39.019 41.5105 39.2762 41.9488 39.2762H51.4288C51.9114 40.9191 53.4328 42.1226 55.2312 42.1226C57.4146 42.1226 59.1909 40.3463 59.1909 38.1629C59.1909 35.9777 57.4146 34.2001 55.2312 34.2001C53.4326 34.2001 51.911 35.405 51.4286 37.0496H42.669L40.8247 32.9452C41.6662 31.7741 42.3622 30.4919 42.8838 29.1243H57.8746C59.5832 33.6041 63.1538 37.1746 67.6336 38.8834L67.6337 42.1398ZM53.4948 38.1629C53.4948 37.2055 54.2738 36.4266 55.2312 36.4266C56.1868 36.4266 56.9644 37.2056 56.9644 38.1629C56.9644 39.1185 56.1868 39.896 55.2312 39.896C54.2738 39.896 53.4948 39.1185 53.4948 38.1629Z" fill="#2280C0"></path></svg> 