<?xml version="1.0" encoding="UTF-8"?> <svg xmlns="http://www.w3.org/2000/svg" width="100" height="100" viewBox="0 0 100 100" fill="none"><g clip-path="url(#clip0_234_1786)"><path d="M60.1404 67.23C59.5304 66.89 58.9304 67.03 58.2304 67.66C55.9904 69.66 53.7804 71.68 51.5104 73.64C49.8804 75.06 48.1804 76.4 46.5304 77.77C39.7904 73.49 23.4004 56.95 20.3304 51.43H16.8504C16.8504 51.43 16.8704 51.46 16.8804 51.47C18.6104 53.91 20.2604 56.43 22.1804 58.72C29.0404 66.93 37.0104 73.99 45.3504 80.64C46.1904 81.3 46.7804 81.32 47.5804 80.63C51.8104 77.03 56.0204 73.4 60.2304 69.78C60.3904 69.64 60.5404 69.47 60.6604 69.29C61.1404 68.57 60.9004 67.64 60.1404 67.23ZM87.7504 48.02C87.0504 43.3 84.5404 39.93 80.2604 37.83C80.0004 37.7 79.7704 37.33 79.6804 37.02C79.4504 36.26 79.3404 35.45 79.1304 34.68C75.6204 22.01 61.3304 16.15 49.9604 22.73C48.7304 23.44 47.6104 24.37 46.4404 25.2C38.1204 17.62 27.3704 19.46 21.4704 23.69C15.1004 28.25 10.4004 38.61 14.6204 47.38H17.9404C16.7004 44.95 15.7904 42.44 15.9404 39.64C16.1704 35.37 17.7004 31.65 20.5504 28.45C26.8004 21.43 37.8804 21.03 44.6104 27.6C46.3404 29.28 46.6004 29.27 48.3504 27.58C50.6904 25.33 53.4504 23.81 56.6404 23.23C64.4104 21.84 71.4704 25.33 75.0904 32.36C75.8004 33.72 76.2104 35.23 76.8204 36.81C75.9804 36.76 75.4004 36.68 74.8204 36.7C67.0004 36.91 61.3004 43.54 62.2604 51.3C62.9304 56.69 67.3004 61.29 72.6204 62.21C78.3304 63.21 84.0504 60.42 86.4404 55.33C87.1004 53.92 87.4004 52.34 87.8604 50.84V48.21C87.8204 48.15 87.7604 48.09 87.7504 48.02ZM75.0004 59.49C69.5004 59.49 65.0404 55.03 65.0504 49.55C65.0604 44.08 69.5804 39.58 75.0204 39.61C80.4804 39.65 84.9204 44.1 84.9304 49.54C84.9504 55.02 80.4904 59.49 75.0004 59.49Z" fill="#2280C0"></path><path d="M58.7395 49.64C58.6895 50.42 58.0995 50.99 57.2195 51C55.5295 51.03 53.8495 51.01 52.1695 51.01H50.7795C50.5195 51.85 50.2495 52.67 49.9895 53.5C48.9995 56.68 48.0095 59.86 47.0195 63.05C46.9695 63.21 46.9195 63.37 46.8595 63.53C46.6095 64.18 46.1695 64.59 45.4395 64.59C44.7095 64.58 44.2495 64.17 44.0295 63.51C43.6095 62.24 43.2295 60.96 42.8295 59.68C40.9695 53.74 39.1195 47.79 37.2595 41.84C37.1995 41.64 37.1295 41.43 36.9795 41C36.8395 41.44 36.7495 41.7 36.6795 41.95C35.9595 44.45 35.2395 46.96 34.5195 49.46C34.1895 50.58 33.8095 50.86 32.6295 50.87H16.0795C15.9895 50.85 15.8895 50.85 15.7795 50.86C15.7195 50.87 15.6695 50.87 15.6095 50.87C15.4995 50.89 15.3795 50.89 15.2695 50.89H15.2495C15.0095 50.89 14.7695 50.87 14.5395 50.86C13.6395 50.82 13.0495 50.29 12.9995 49.5C12.9495 48.77 13.4595 48.16 14.2895 47.99C14.3595 47.97 14.4295 47.96 14.4995 47.95H19.8995V47.93C23.7395 47.95 27.5995 47.93 31.4495 47.96C31.9895 47.96 32.0095 47.62 32.1095 47.28C33.1895 43.51 34.2695 39.75 35.3495 35.98C35.4395 35.68 35.5195 35.37 35.6795 35.1C36.2195 34.14 37.5795 34.12 38.1495 35.07C38.2795 35.29 38.3595 35.56 38.4395 35.81C40.6795 42.96 42.9095 50.11 45.1495 57.27C45.2195 57.49 45.2995 57.72 45.4495 58.16C45.5895 57.74 45.6695 57.51 45.7495 57.27C46.5495 54.69 47.3595 52.12 48.1695 49.54C48.5295 48.4 48.9395 48.09 50.1295 48.09C52.3695 48.08 54.6095 48.09 56.8495 48.09C57.0195 48.09 57.1995 48.09 57.3595 48.12C58.2195 48.25 58.7895 48.88 58.7395 49.64Z" fill="#CF355E"></path><path d="M62.1094 64.5101C62.1094 63.7201 62.8194 63.0101 63.5994 63.0201C64.3594 63.0201 65.0394 63.7201 65.0394 64.4801C65.0394 65.2601 64.3294 65.9601 63.5394 65.9601C62.7594 65.9601 62.1094 65.3001 62.1094 64.5101Z" fill="#32BDE6"></path><path d="M73.5306 51.01C72.2306 51.01 71.0206 51.02 69.8106 51.01C68.9006 51 68.3606 50.55 68.2406 49.8C68.0906 48.82 68.7206 48.14 69.8506 48.1C70.7806 48.07 71.7006 48.1 72.6306 48.1C72.9006 48.1 73.1606 48.1 73.5306 48.1C73.5306 47.1 73.5306 46.13 73.5306 45.17C73.5306 44.85 73.5106 44.53 73.5406 44.22C73.6206 43.35 74.2006 42.79 75.0006 42.79C75.8006 42.79 76.4006 43.36 76.4406 44.24C76.4806 45.31 76.4506 46.38 76.4606 47.46C76.4606 47.65 76.4606 47.84 76.4606 48.11C77.6906 48.11 78.8506 48.11 80.0206 48.11C80.9706 48.12 81.5506 48.5 81.7306 49.18C81.9806 50.15 81.3606 50.98 80.3106 51.01C79.0706 51.05 77.8306 51.01 76.4606 51.01C76.4606 51.92 76.4606 52.78 76.4606 53.64C76.4606 54.08 76.4806 54.52 76.4406 54.96C76.3706 55.77 75.7606 56.35 75.0206 56.37C74.2606 56.39 73.5906 55.78 73.5506 54.94C73.5006 53.97 73.5306 52.99 73.5306 52.02C73.5306 51.73 73.5306 51.44 73.5306 51.02V51.01Z" fill="#CF355E"></path></g><defs><clipPath id="clip0_234_1786"><rect width="74.86" height="61.14" fill="white" transform="translate(13 20)"></rect></clipPath></defs></svg> 