<?xml version="1.0" encoding="UTF-8"?> <svg xmlns="http://www.w3.org/2000/svg" width="100" height="100" viewBox="0 0 100 100" fill="none"><g clip-path="url(#clip0_234_1790)"><path d="M61.1 34.17C62.81 34.46 64.04 35.4 64.71 37C64.99 37.66 65.39 37.9 66.09 37.9C68.28 37.87 70.47 37.89 72.66 37.89V36H67.24V35.98C66.56 36.09 66.33 35.98 66.09 35.55C63.71 31.38 57.89 31.13 55.19 35.08C54.92 35.48 54.61 35.89 54.89 36.43C55.17 36.96 55.65 36.96 56.15 36.95C56.64 36.94 57.13 36.93 57.62 36.95C58.67 36.99 59.47 37.82 59.46 38.84C59.46 39.83 58.66 40.65 57.64 40.69C57.06 40.72 56.47 40.69 55.89 40.7C54.89 40.72 54.5 41.43 55.02 42.3C57.47 46.43 63.47 46.42 65.97 42.25C66.27 41.76 66.57 41.62 67.11 41.62C68.95 41.65 70.79 41.64 72.66 41.64V39.76H71.21C69.5 39.76 67.81 39.78 66.11 39.75C65.39 39.74 64.98 39.98 64.69 40.67C63.52 43.43 60.2 44.39 57.87 42.62C60.22 41.96 61.36 40.7 61.34 38.78C61.32 36.91 60.13 35.6 57.94 35.05C58.49 34.4 59.96 33.98 61.1 34.17ZM61.1 34.17C62.81 34.46 64.04 35.4 64.71 37C64.99 37.66 65.39 37.9 66.09 37.9C68.28 37.87 70.47 37.89 72.66 37.89V36H67.24V35.98C66.56 36.09 66.33 35.98 66.09 35.55C63.71 31.38 57.89 31.13 55.19 35.08C54.92 35.48 54.61 35.89 54.89 36.43C55.17 36.96 55.65 36.96 56.15 36.95C56.64 36.94 57.13 36.93 57.62 36.95C58.67 36.99 59.47 37.82 59.46 38.84C59.46 39.83 58.66 40.65 57.64 40.69C57.06 40.72 56.47 40.69 55.89 40.7C54.89 40.72 54.5 41.43 55.02 42.3C57.47 46.43 63.47 46.42 65.97 42.25C66.27 41.76 66.57 41.62 67.11 41.62C68.95 41.65 70.79 41.64 72.66 41.64V39.76H71.21C69.5 39.76 67.81 39.78 66.11 39.75C65.39 39.74 64.98 39.98 64.69 40.67C63.52 43.43 60.2 44.39 57.87 42.62C60.22 41.96 61.36 40.7 61.34 38.78C61.32 36.91 60.13 35.6 57.94 35.05C58.49 34.4 59.96 33.98 61.1 34.17ZM74.08 21H26.07C22.97 21 21 22.95 21 26.04V60.04C21 63.13 22.98 65.08 26.07 65.08C31.62 65.09 37.17 65.09 42.72 65.08C43.53 65.08 43.69 65.52 44.2 67.86C44.41 68.86 44.4 69.9 44.11 70.88C43.96 71.42 43.81 71.69 43.24 71.67C42.07 71.62 40.89 71.64 39.72 71.66C37.46 71.69 35.57 73.26 35.19 75.48C35.06 76.24 35.09 77.04 35.08 77.82C35.07 78.88 35.35 79.15 36.44 79.15H55.08C57.99 79.15 60.9 79.16 63.81 79.15C64.79 79.15 65.09 78.86 65.09 77.85C65.1 77.39 65.1 76.92 65.09 76.45C65.07 73.7 63.04 71.67 60.32 71.65C59.14 71.64 57.97 71.64 56.79 71.66C56.37 71.67 56.24 71.48 56.11 71.05C55.66 69.62 55.71 68.08 56.17 66.66C56.57 65.44 56.76 65.06 57.47 65.08C63.02 65.09 68.57 65.09 74.12 65.08C77.21 65.08 79.16 63.12 79.16 60.02V26.08C79.16 22.95 77.22 21 74.08 21ZM60.4 73.53C61.97 73.53 63.17 74.74 63.22 76.31V77.25H37.04C36.5 75.38 37.84 73.54 39.79 73.53C46.66 73.52 53.53 73.52 60.4 73.53ZM54.33 71.62H45.85C46.61 69.41 46.46 67.25 45.47 65.11H54.69C53.73 67.23 53.54 69.39 54.33 71.62ZM77.29 60.24C77.28 62.03 76.09 63.21 74.29 63.21H25.88C24.08 63.21 22.89 62.02 22.89 60.24C22.88 58.13 22.89 56.02 22.89 53.85H59.78C60.32 53.85 60.75 53.42 60.75 52.88C60.75 52.34 60.32 51.91 59.78 51.91H26.66V26.66H73.49V35.29H73.53V42.79H73.49V51.91H71.26C70.73 51.91 70.29 52.34 70.29 52.88C70.29 53.42 70.73 53.85 71.26 53.85H77.25C77.27 54.02 77.29 54.17 77.29 54.32V60.24ZM77.29 51.93H75.41V27.04C75.41 25.78 74.38 24.75 73.12 24.75H27.04C25.45 24.75 24.75 25.44 24.75 27.02V51.91H22.89V26.02C22.89 24 24 22.88 26.04 22.88H74.12C76.18 22.88 77.29 23.99 77.29 26.08V51.93ZM72.66 39.76H71.21C69.5 39.76 67.81 39.78 66.11 39.75C65.39 39.74 64.98 39.98 64.69 40.67C63.52 43.43 60.2 44.39 57.87 42.62C60.22 41.96 61.36 40.7 61.34 38.78C61.32 36.91 60.13 35.6 57.94 35.05C58.49 34.4 59.96 33.98 61.1 34.17C62.81 34.46 64.04 35.4 64.71 37C64.99 37.66 65.39 37.9 66.09 37.9C68.28 37.87 70.47 37.89 72.66 37.89V36H67.24V35.98C66.56 36.09 66.33 35.98 66.09 35.55C63.71 31.38 57.89 31.13 55.19 35.08C54.92 35.48 54.61 35.89 54.89 36.43C55.17 36.96 55.65 36.96 56.15 36.95C56.64 36.94 57.13 36.93 57.62 36.95C58.67 36.99 59.47 37.82 59.46 38.84C59.46 39.83 58.66 40.65 57.64 40.69C57.06 40.72 56.47 40.69 55.89 40.7C54.89 40.72 54.5 41.43 55.02 42.3C57.47 46.43 63.47 46.42 65.97 42.25C66.27 41.76 66.57 41.62 67.11 41.62C68.95 41.65 70.79 41.64 72.66 41.64V39.76ZM61.1 34.17C62.81 34.46 64.04 35.4 64.71 37C64.99 37.66 65.39 37.9 66.09 37.9C68.28 37.87 70.47 37.89 72.66 37.89V36H67.24V35.98C66.56 36.09 66.33 35.98 66.09 35.55C63.71 31.38 57.89 31.13 55.19 35.08C54.92 35.48 54.61 35.89 54.89 36.43C55.17 36.96 55.65 36.96 56.15 36.95C56.64 36.94 57.13 36.93 57.62 36.95C58.67 36.99 59.47 37.82 59.46 38.84C59.46 39.83 58.66 40.65 57.64 40.69C57.06 40.72 56.47 40.69 55.89 40.7C54.89 40.72 54.5 41.43 55.02 42.3C57.47 46.43 63.47 46.42 65.97 42.25C66.27 41.76 66.57 41.62 67.11 41.62C68.95 41.65 70.79 41.64 72.66 41.64V39.76H71.21C69.5 39.76 67.81 39.78 66.11 39.75C65.39 39.74 64.98 39.98 64.69 40.67C63.52 43.43 60.2 44.39 57.87 42.62C60.22 41.96 61.36 40.7 61.34 38.78C61.32 36.91 60.13 35.6 57.94 35.05C58.49 34.4 59.96 33.98 61.1 34.17Z" fill="#2280C0"></path><path d="M51.3697 36.0201C50.7697 36.0401 50.4297 35.8501 50.3197 35.1101C50.4697 34.9901 50.7097 34.8201 50.9297 34.6201C51.1597 34.4101 51.3797 34.1801 51.5897 33.9601C52.0797 33.4301 52.1097 32.9701 51.6197 32.4701C50.7297 31.5601 49.8397 30.6601 48.9197 29.7701C48.4397 29.3101 47.9697 29.3201 47.4797 29.7901C47.0397 30.2101 46.6397 30.6601 46.2097 31.1101C45.6697 30.8767 45.3997 30.5001 45.3997 29.9801V29.5101C45.3697 28.8901 45.0297 28.5201 44.4097 28.5101C43.1997 28.4901 41.9897 28.5001 40.7797 28.5101C40.1297 28.5201 39.7897 28.8801 39.7697 29.5501C39.7497 29.8401 39.8297 30.1501 39.7497 30.4201C39.6897 30.6401 39.4797 30.8501 39.2697 30.9601C39.1597 31.0301 38.8797 30.9401 38.7497 30.8301C38.3697 30.5001 38.0397 30.1101 37.6597 29.7701C37.2597 29.4001 36.6297 29.4001 36.2297 29.7801C35.3197 30.6701 34.4197 31.5801 33.5297 32.4901C33.0797 32.9501 33.0897 33.4301 33.5297 33.8901C33.8597 34.2501 34.2397 34.5701 34.5497 34.9401C34.6797 35.0801 34.7597 35.3301 34.7397 35.5101C34.6797 35.8201 34.5097 36.0801 34.0897 36.0201C33.8597 35.9801 33.6197 36.0101 33.3897 36.0101C32.6197 36.0201 32.2897 36.3601 32.2797 37.1201C32.2597 38.0001 32.2797 38.8801 32.2597 39.7601C32.2397 41.2001 32.2297 41.7601 34.0897 41.6301C34.5097 41.6001 34.6797 41.8201 34.7397 42.1401C34.7597 42.3101 34.6797 42.5601 34.5497 42.7001C34.2397 43.0701 33.8597 43.3901 33.5297 43.7501C33.1597 44.1501 33.1597 44.7601 33.5297 45.1501C34.4197 46.0801 35.3497 46.9901 36.2697 47.8901C36.6297 48.2501 37.2197 48.2601 37.6097 47.9301C37.9697 47.6201 38.2797 47.2601 38.6397 46.9301C38.7997 46.7701 38.9197 46.4601 39.2997 46.6501C39.6297 46.8201 39.8497 46.9901 39.7897 47.4001C39.7497 47.6401 39.7597 47.9001 39.7897 48.1601C39.8097 48.7501 40.1597 49.1201 40.7397 49.1301C41.9897 49.1501 43.2397 49.1501 44.4897 49.1301C45.0397 49.1201 45.3797 48.7501 45.4097 48.1901C45.4297 47.9901 45.4397 47.7901 45.4097 47.6001C45.3097 46.9801 45.5897 46.6601 46.2897 46.5801C46.4497 46.7601 46.6397 46.9801 46.8397 47.1901C47.0397 47.4101 47.2397 47.6101 47.4497 47.8201C47.8797 48.2401 48.5597 48.2501 48.9897 47.8301C49.8697 46.9601 50.7497 46.0901 51.6097 45.2001C52.0197 44.7801 52.0197 44.1001 51.6097 43.6901C51.1797 43.2601 50.7297 42.8601 50.3197 42.4801C50.5397 41.9201 50.913 41.6401 51.4397 41.6401H51.7797C52.4097 41.6401 52.9197 41.1401 52.9197 40.5201C52.9397 39.5001 52.9197 38.4601 52.9197 37.4301C52.9197 36.5901 52.2297 35.9901 51.3897 36.0201H51.3697ZM50.9797 39.7701C48.9297 39.3301 48.8297 41.1301 48.3197 42.2801C47.8397 43.3501 49.2397 43.6501 49.6097 44.4701C49.1497 44.9301 48.6897 45.4001 48.2397 45.8601C47.3797 45.5001 47.0997 43.9701 45.7897 44.6201C43.1897 45.9201 43.6297 45.4201 43.4797 47.2301H41.6297C42.0797 45.1901 40.2897 45.0901 39.1697 44.5701C38.0597 44.0601 37.7497 45.4901 36.9297 45.8501C36.5197 45.3901 36.0797 44.9001 35.5897 44.3601C36.0197 43.5901 37.5997 43.1401 36.6197 41.6401C35.9997 40.7201 35.8697 39.2901 34.1697 39.8301V37.9001C34.8697 37.8601 35.7197 38.0601 36.0597 37.1001C36.3197 36.3701 36.9297 35.6401 36.8597 34.9701C36.7897 34.3301 36.0397 33.7701 35.5797 33.1601C36.0197 32.7501 36.4997 32.3001 37.0197 31.8101C37.8097 32.2901 38.2897 33.8301 39.7797 32.8501C40.6897 32.2501 42.0997 32.1201 41.5697 30.4301H43.4997C43.5397 31.1301 43.3597 31.9701 44.3197 32.3101C45.0297 32.5601 45.7397 33.1801 46.3997 33.1101C47.0397 33.0401 47.6097 32.3001 48.1997 31.8701C48.6097 32.2901 49.0597 32.7801 49.5597 33.3101C49.2697 34.0401 47.6597 34.3401 48.4297 35.7001C48.9997 36.7101 49.0997 38.3201 50.9797 37.8401V39.7701Z" fill="#32BDE6"></path><path d="M50.1214 55.7099C48.5614 55.6899 47.2814 56.96 47.2814 58.52C47.2614 60.35 49.0714 61.7999 50.9814 61.1899C51.8114 60.9299 52.4814 60.25 52.7514 59.43C53.3714 57.53 51.9414 55.7199 50.1214 55.7099ZM50.0814 59.45C49.5714 59.45 49.1514 59.0199 49.1514 58.5099C49.1514 57.9999 49.5914 57.58 50.1014 57.59C50.6114 57.59 51.0314 58.0199 51.0214 58.5299C51.0014 59.0399 50.5814 59.46 50.0814 59.45Z" fill="#32BDE6"></path><path d="M42.6204 34.14C40.0304 34.12 37.9104 36.22 37.9004 38.8C37.9004 41.38 39.9904 43.51 42.5704 43.51C45.1404 43.52 47.2504 41.43 47.2704 38.88C47.2904 36.28 45.2004 34.15 42.6204 34.14ZM42.5904 41.63C40.7204 41.64 39.2704 39.79 39.9304 37.86C40.2104 37.04 40.9004 36.38 41.7404 36.13C43.6504 35.57 45.4104 37.02 45.4004 38.85C45.3804 40.38 44.1204 41.63 42.5904 41.63Z" fill="#32BDE6"></path><path d="M65.5595 53.84C66.1339 53.84 66.5995 53.3744 66.5995 52.8C66.5995 52.2256 66.1339 51.76 65.5595 51.76C64.9852 51.76 64.5195 52.2256 64.5195 52.8C64.5195 53.3744 64.9852 53.84 65.5595 53.84Z" fill="#32BDE6"></path></g><defs><clipPath id="clip0_234_1790"><rect width="58.16" height="58.15" fill="white" transform="translate(21 21)"></rect></clipPath></defs></svg> 